<svg width="40" height="40" viewBox="0 0 30 30" fill="none" xmlns="http://www.w3.org/2000/svg">
<g clip-path="url(#clip0_133_2304)">
<path d="M15 0.9375C7.2446 0.9375 0.9375 7.2446 0.9375 15C0.9375 22.7554 7.2446 29.0625 15 29.0625C22.7554 29.0625 29.0625 22.7554 29.0625 15C29.0625 7.2446 22.7554 0.9375 15 0.9375ZM15 2.8125C21.7421 2.8125 27.1948 8.25793 27.1948 15C27.1948 21.7421 21.7421 27.1948 15 27.1948C8.25793 27.1948 2.8125 21.7421 2.8125 15C2.8125 8.25793 8.25793 2.8125 15 2.8125ZM14.9872 7.50549C14.7395 7.50985 14.5036 7.61205 14.331 7.78977C14.1585 7.96749 14.0632 8.20628 14.0662 8.45398V9.24316C12.5524 9.52713 11.2573 10.5019 11.2573 12.1912C11.2573 13.363 11.7856 14.3108 12.4951 14.8627C13.2046 15.4145 14.0057 15.6592 14.7089 15.8936C15.412 16.1279 16.0189 16.352 16.3641 16.6205C16.7093 16.889 16.875 17.1149 16.875 17.818C16.875 19.3805 13.1323 19.3805 13.1323 17.818C13.1351 17.6931 13.1129 17.569 13.067 17.4528C13.0212 17.3366 12.9525 17.2308 12.8652 17.1415C12.7779 17.0522 12.6736 16.9813 12.5585 16.9328C12.4434 16.8844 12.3197 16.8595 12.1948 16.8595C12.0699 16.8595 11.9463 16.8844 11.8312 16.9328C11.716 16.9813 11.6118 17.0522 11.5244 17.1415C11.4371 17.2308 11.3685 17.3366 11.3226 17.4528C11.2768 17.569 11.2546 17.6931 11.2573 17.818C11.2573 19.5059 12.5536 20.4825 14.0662 20.7678V21.5533C14.0634 21.6782 14.0856 21.8024 14.1315 21.9185C14.1773 22.0347 14.2459 22.1405 14.3333 22.2298C14.4206 22.3191 14.5249 22.3901 14.64 22.4385C14.7551 22.4869 14.8788 22.5119 15.0037 22.5119C15.1286 22.5119 15.2522 22.4869 15.3673 22.4385C15.4824 22.3901 15.5867 22.3191 15.674 22.2298C15.7614 22.1405 15.83 22.0347 15.8759 21.9185C15.9217 21.8024 15.9439 21.6782 15.9412 21.5533V20.7678C17.454 20.4827 18.7518 19.5062 18.7518 17.818C18.7518 16.6461 18.2217 15.6983 17.5122 15.1465C16.8027 14.5946 16.0016 14.3481 15.2985 14.1138C14.5953 13.8794 13.9884 13.6571 13.6432 13.3887C13.298 13.1202 13.1323 12.8943 13.1323 12.1912C13.1323 10.6287 16.875 10.6287 16.875 12.1912C16.875 12.44 16.9739 12.6787 17.1499 12.8547C17.3258 13.0307 17.5645 13.1296 17.8134 13.1296C18.0623 13.1296 18.301 13.0307 18.477 12.8547C18.653 12.6787 18.7518 12.44 18.7518 12.1912C18.7518 10.5044 17.4536 9.53064 15.9412 9.24499V8.45398C15.9426 8.32855 15.9189 8.20409 15.8714 8.08799C15.824 7.97189 15.7536 7.86649 15.6647 7.77805C15.5757 7.68961 15.4699 7.61991 15.3536 7.5731C15.2372 7.52628 15.1126 7.50329 14.9872 7.50549Z" />
</g>
<defs>
<clipPath id="clip0_133_2304">
<rect width="30" height="30" fill="white"/>
</clipPath>
</defs>
</svg>
