<svg width="150" height="37.61" viewBox="0 0 236 59" fill="none" xmlns="http://www.w3.org/2000/svg">
<g clip-path="url(#clip0_44_926)">
<path d="M75.8958 6.69H93.1553V53.46H75.8958V6.69ZM83.787 42.26H85.3168V18.93H83.787V42.26ZM125.997 7.72V19.18H122.727V21.55H111.67V19.18H108.02V21.55H97.2381V19.18H94.5162V7.72H97.2381V5.81H108.02V7.72H111.67V5.81H122.727V7.72H125.997ZM94.5162 22.8H125.997V53.82H94.5162V22.8ZM104.539 31.62V35.44H106.501V31.62H104.539ZM104.539 45.05H106.501V41.23H104.539V45.05ZM115.268 31.62H113.306V35.44H115.268V31.62ZM115.268 45.05V41.23H113.306V45.05H115.268Z" fill="#4527A0"/>
<path d="M180.782 40.86V53.61H130.354V40.86H135.523L133.023 24.91V23H149.85L152.192 40.86H158.459L160.801 23H177.628V24.91L175.117 40.86H180.782ZM180.403 21.3H130.787V8.09H145.873V5.41H165.263V8.09H180.403V21.3Z" fill="#4527A0"/>
<path d="M201.798 42.15H205.775V51.08H201.798V53.87H189.106V51.08H185.076V42.15H189.106V40.34H185.076V18.45H189.106V16.69H185.076V8.07001H189.106V6.32001H201.798V8.07001H205.722V16.69H201.798V18.45H205.722V40.34H201.798V42.15ZM197.23 25.48H193.421V26.93H197.23V25.48ZM193.411 33.17H197.219V31.72H193.411V33.17ZM207.083 20.47H220.049V53.77H206.925V48.97L209.816 47.99V46.24L208.349 46.81H207.041V39.48L209.816 38.55V37.78L207.041 37.16V30.66H208.349L209.816 31.02V29.16H207.094V20.49L207.083 20.47ZM235.019 10.77V19.18H225.324L221.948 17.12H220.038L216.937 19.18H206.967V10.77L215.787 5.76001H226.189L235.009 10.77H235.019ZM221.188 20.47H234.966V53.77H221.674V48.97L224.068 47.99V46.6L222.539 47.17H221.231V39.48L224.058 38.55V37.78L221.167 37.16V30.66H222.528L224.058 31.02V29.16H221.167V20.49L221.188 20.47Z" fill="#4527A0"/>
<path d="M31.0904 0C13.9153 0 0 13.19 0 29.47C0 45.75 13.9153 58.94 31.0904 58.94C48.2656 58.94 62.1808 45.75 62.1808 29.47C62.1808 13.19 48.255 0 31.0904 0ZM45.4066 41.82C44.2144 43.8 42.5054 45.32 40.2793 46.38C38.0533 47.44 35.1099 47.98 31.4808 47.98C27.8516 47.98 25.1403 47.59 23.0936 46.8C21.047 46.01 19.359 44.86 18.0403 43.33C16.7215 41.81 15.7087 39.9 14.9913 37.6L25.8155 36.24C26.2375 38.31 26.9021 39.74 27.7989 40.54C28.6956 41.34 29.835 41.74 31.217 41.74C32.6729 41.74 33.8756 41.24 34.8462 40.23C35.8168 39.22 36.2915 37.88 36.2915 36.2C36.2915 34.52 35.8273 33.16 34.8989 32.22C33.9705 31.28 32.7045 30.81 31.1115 30.81C30.257 30.81 29.0859 31.01 27.5984 31.41L28.1576 24.08C28.7589 24.16 29.2336 24.21 29.5712 24.21C30.9849 24.21 32.1771 23.78 33.116 22.92C34.0549 22.06 34.5402 21.05 34.5402 19.87C34.5402 18.69 34.1815 17.85 33.4747 17.17C32.7678 16.5 31.7867 16.16 30.5524 16.16C29.318 16.16 28.242 16.53 27.4402 17.26C26.6384 17.99 26.1003 19.27 25.8155 21.1L15.5821 19.36C16.4367 16.27 18.0719 13.9 20.4878 12.25C22.9037 10.6 26.3324 9.78 30.7634 9.78C35.8484 9.78 39.5303 10.68 41.7985 12.48C44.0667 14.28 45.2061 16.54 45.2061 19.26C45.2061 20.86 44.7419 22.3 43.8241 23.6C42.9063 24.9 41.5137 26.03 39.6464 27C41.155 27.35 42.3049 27.77 43.1067 28.24C44.4043 29 45.4066 29.99 46.124 31.23C46.8414 32.46 47.2001 33.94 47.2001 35.65C47.2001 37.8 46.6093 39.86 45.4171 41.84L45.4066 41.82Z" fill="#4527A0"/>
</g>
<defs>
<clipPath id="clip0_44_926">
<rect width="235.019" height="58.93" fill="white"/>
</clipPath>
</defs>
</svg>
