<svg width="150" height="39" viewBox="0 0 150 39" fill="none" xmlns="http://www.w3.org/2000/svg">
<g clip-path="url(#clip0_133_2310)">
<path d="M48.4401 4.96388H59.4559V34.8146H48.4401V4.96388ZM53.4767 27.6663H54.453V12.776H53.4767V27.6663ZM80.417 5.62127V12.9356H78.3297V14.4482H71.2731V12.9356H68.9433V14.4482H62.0618V12.9356H60.3245V5.62127H62.0618V4.40222H68.9433V5.62127H71.2731V4.40222H78.3297V5.62127H80.417ZM60.3245 15.246H80.417V35.0444H60.3245V15.246ZM66.7213 20.8754V23.3134H67.9737V20.8754H66.7213ZM66.7213 29.447H67.9737V27.0089H66.7213V29.447ZM73.5691 20.8754H72.3167V23.3134H73.5691V20.8754ZM73.5691 29.447V27.0089H72.3167V29.447H73.5691Z" fill="#FAFAFA"/>
<path d="M115.384 26.7728V34.9104H83.1979V26.7728H86.4973L84.9015 16.5928V15.3737H95.6412L97.136 26.7728H101.136L102.631 15.3737H113.37V16.5928L111.768 26.7728H115.384ZM115.141 14.2887H83.474V5.85747H93.1027V4.14697H105.479V5.85747H115.141V14.2887Z" fill="#FAFAFA"/>
<path d="M128.797 27.5961H131.335V33.2957H128.797V35.0764H120.696V33.2957H118.124V27.5961H120.696V26.4409H118.124V12.4697H120.696V11.3464H118.124V5.84471H120.696V4.72778H128.797V5.84471H131.301V11.3464H128.797V12.4697H131.301V26.4409H128.797V27.5961ZM125.881 16.9566H123.45V17.882H125.881V16.9566ZM123.443 21.8647H125.874V20.9392H123.443V21.8647ZM132.17 13.759H140.445V35.0126H132.069V31.949L133.914 31.3235V30.2066L132.978 30.5704H132.143V25.892L133.914 25.2984V24.807L132.143 24.4113V20.2627H132.978L133.914 20.4925V19.3053H132.177V13.7717L132.17 13.759ZM150 7.56797V12.9356H143.812L141.657 11.6208H140.439L138.459 12.9356H132.096V7.56797L137.725 4.37036H144.364L149.993 7.56797H150ZM141.173 13.759H149.966V35.0126H141.482V31.949L143.011 31.3235V30.4363L142.034 30.8001H141.199V25.892L143.004 25.2984V24.807L141.159 24.4113V20.2627H142.028L143.004 20.4925V19.3053H141.159V13.7717L141.173 13.759Z" fill="#FAFAFA"/>
<path d="M19.8433 0.694092C8.88136 0.694092 0 9.11256 0 19.5032C0 29.8938 8.88136 38.3123 19.8433 38.3123C30.8053 38.3123 39.6867 29.8938 39.6867 19.5032C39.6867 9.11256 30.7986 0.694092 19.8433 0.694092ZM28.9806 27.3855C28.2197 28.6493 27.1289 29.6194 25.7081 30.2959C24.2874 30.9725 22.4088 31.3171 20.0925 31.3171C17.7762 31.3171 16.0457 31.0682 14.7394 30.564C13.4331 30.0598 12.3558 29.3258 11.5141 28.3493C10.6724 27.3792 10.026 26.1601 9.56816 24.6921L16.4766 23.8241C16.746 25.1453 17.1702 26.058 17.7425 26.5686C18.3149 27.0792 19.0421 27.3345 19.9241 27.3345C20.8533 27.3345 21.621 27.0154 22.2404 26.3707C22.8599 25.7261 23.1629 24.8709 23.1629 23.7986C23.1629 22.7263 22.8666 21.8583 22.2741 21.2584C21.6816 20.6584 20.8735 20.3584 19.8568 20.3584C19.3114 20.3584 18.564 20.4861 17.6146 20.7414L17.9715 16.0631C18.3553 16.1141 18.6583 16.146 18.8737 16.146C19.776 16.146 20.5369 15.8716 21.1361 15.3227C21.7354 14.7738 22.0452 14.1292 22.0452 13.376C22.0452 12.6229 21.8162 12.0868 21.3651 11.6528C20.9139 11.2252 20.2877 11.0081 19.4999 11.0081C18.7121 11.0081 18.0253 11.2443 17.5136 11.7102C17.0018 12.1761 16.6584 12.9931 16.4766 14.1611L9.94524 13.0505C10.4906 11.0784 11.5343 9.56571 13.0763 8.51261C14.6182 7.4595 16.8066 6.93614 19.6346 6.93614C22.8801 6.93614 25.2301 7.51056 26.6777 8.6594C28.1254 9.80824 28.8526 11.2507 28.8526 12.9867C28.8526 14.0079 28.5564 14.927 27.9706 15.7567C27.3847 16.5864 26.4959 17.3076 25.3041 17.9267C26.267 18.1501 27.0009 18.4182 27.5127 18.7182C28.3409 19.2032 28.9806 19.8351 29.4384 20.6265C29.8963 21.4116 30.1252 22.3562 30.1252 23.4476C30.1252 24.8198 29.7482 26.1346 28.9873 27.3983L28.9806 27.3855Z" fill="#FAFAFA"/>
</g>
<defs>
<clipPath id="clip0_133_2310">
<rect width="150" height="37.6118" fill="white" transform="translate(0 0.694092)"/>
</clipPath>
</defs>
</svg>
