<svg width="442" height="33" viewBox="0 0 442 33" fill="none" xmlns="http://www.w3.org/2000/svg">
<path d="M21.4 1.545L24.025 4.835V15.37L16.99 21.81V22.23H24.445V31.575H0.575V24.855L12.055 13.34V12.08H0.89V1.545H21.4ZM27.7861 27.76V5.815L31.8461 1.65H48.7161L52.8111 5.815V27.76L48.7161 31.68H31.8461L27.7861 27.76ZM38.2511 11.45V22.09H42.3461V11.45H38.2511ZM76.9762 1.545L79.6012 4.835V15.37L72.5662 21.81V22.23H80.0212V31.575H56.1512V24.855L67.6312 13.34V12.08H56.4662V1.545H76.9762ZM83.2923 31.645V22.405H95.9973V20.165H83.9573V12.885H95.9973V10.68H83.4673V1.615H106.707V13.725L104.747 15.965L107.232 18.24V28.355L103.942 31.645H83.2923ZM145.693 2.315V12.43H139.708V31.4H128.123V12.43H122.138V2.315H145.693ZM162.721 2.385H173.711V31.4H162.721V21.775H159.116V31.4H148.126V2.385H159.116V11.87H162.721V2.385ZM187.376 22.335H199.241V31.435H176.491V2.385H199.101V11.485H187.376V13.515H198.821V20.165H187.376V22.335ZM236.875 12.465H225.85V15.195H236.63V23.455H225.85V31.4H214.23V2.385H236.875V12.465ZM260.316 1.545L262.941 4.835V15.37L255.906 21.81V22.23H263.361V31.575H239.491V24.855L250.971 13.34V12.08H239.806V1.545H260.316ZM277.132 22.335H288.997V31.435H266.247V2.385H288.857V11.485H277.132V13.515H288.577V20.165H277.132V22.335ZM336.046 1.825V10.785H304.161V1.825H313.856V0.00499815H326.316V1.825H336.046ZM332.651 24.05H336.291V32.695H303.881V24.05H307.206L305.596 13.235V11.94H316.411L317.916 24.05H321.941L323.446 11.94H334.261V13.235L332.651 24.05ZM369.366 25.135V27.375L367.756 28.215L370.521 29.125V32.8H358.166L355.191 31.12L352.426 32.905H339.721V29.055L342.731 27.935L340.771 26.92V25.135H338.741V19.115H340.946V18.205H338.811V14.985L342.136 12.955H338.916V7.635H349.626V6.69H339.511V0.634998H370.626V4.66L367.371 6.69H360.511V7.635H371.221V12.955H367.931L371.326 14.985V18.205H362.821L360.511 15.545V18.205H351.621V19.115H371.606V25.135H369.366ZM349.626 18.17V15.545L347.351 18.17H349.626ZM351.831 24.75V25.38L355.366 27.025L358.376 25.31V24.75H351.831ZM388.686 7.145L388.511 8.755H389.281V14.18H373.671V8.755H375.176L375.001 7.145H374.266V1.37H377.696V0.00499815H385.116V1.37H389.211V7.145H388.686ZM406.466 8.755V14.145H390.016V8.755H391.066L390.856 7.145H390.051V1.37H394.356V0.00499815H401.776V1.37H406.186V7.145H405.241L405.066 8.755H406.466ZM380.916 7.145L381.091 8.755H382.351L382.526 7.145H380.916ZM397.156 7.145L397.366 8.755H398.521L398.696 7.145H397.156ZM374.476 23.945V14.985H389.211V23.945H387.496V24.82H389.001V30L387.251 32.87H382.176V23.945H381.651L380.706 32.87H374.126V29.545L375.631 23.945H374.476ZM404.646 24.82H406.641V32.87H397.576V23.945H397.051L396.211 32.87H389.806V29.545L391.136 23.945H390.156V14.985H405.871V23.945H403.526V25.975H404.121L404.646 24.82ZM380.636 18.905V20.025H383.086V18.905H380.636ZM396.561 18.905V20.025H399.256V18.905H396.561ZM439.926 25.415H441.326V32.835H416.791L415.076 31.295L413.431 32.835H409.056V9.28H416.931V25.415H418.296L419.136 23.735H417.701V19.605H420.361V18.765H418.051V14.495H420.361V13.69H417.701V0.529998H428.726V8.895H424.351V9.7H428.726V12.115L427.501 13.305V14.495H430.896V13.69H429.461V0.529998H440.626V8.895H436.146V9.7H440.626V13.69H438.071V14.495H440.486V18.765H438.071V19.605H440.661V23.735H438.981L439.926 25.415ZM416.931 1.125V8.3H409.091V1.125H416.931ZM424.176 4.87H422.671V5.885H424.176V4.87ZM436.041 4.87H434.466V5.885H436.041V4.87ZM427.501 18.765V19.605H430.896V18.765H427.501ZM428.096 24.085L427.746 25.415H430.441L430.196 24.085H428.096Z" fill="#222222"/>
</svg>
