<svg width="30" height="30" viewBox="0 0 30 22" fill="none" xmlns="http://www.w3.org/2000/svg">
<path d="M7.5 1.80591C7.5 0.97751 8.1716 0.305908 9 0.305908H28.5C29.3284 0.305908 30 0.97751 30 1.80591C30 2.63431 29.3284 3.30591 28.5 3.30591H9C8.1716 3.30591 7.5 2.63425 7.5 1.80591ZM28.5 9.30591H1.5C0.671602 9.30591 0 9.97757 0 10.8059C0 11.6343 0.671602 12.3059 1.5 12.3059H28.5C29.3284 12.3059 30 11.6343 30 10.8059C30 9.97757 29.3284 9.30591 28.5 9.30591ZM28.5 18.3059H15C14.1717 18.3059 13.5 18.9775 13.5 19.8059C13.5 20.6342 14.1717 21.3059 15 21.3059H28.5C29.3284 21.3059 30 20.6342 30 19.8059C30 18.9775 29.3284 18.3059 28.5 18.3059Z" fill="#4527A0"/>
</svg>
