<svg width="21" height="15" viewBox="0 0 21 15" fill="none" xmlns="http://www.w3.org/2000/svg">
<path fill-rule="evenodd" clip-rule="evenodd" d="M10.4995 10C11.8663 10 13.1036 10.5596 13.9993 11.4645L10.4995 15L6.99965 11.4645C7.89533 10.5596 9.13271 10 10.4995 10ZM10.4995 5C13.233 5 15.7078 6.11929 17.4992 7.92893L15.3993 10.0503C14.1453 8.7835 12.413 8 10.4995 8C8.58601 8 6.85368 8.7835 5.59972 10.0503L3.49982 7.92893C5.2912 6.11929 7.76595 5 10.4995 5ZM10.1323 0.00449821L10.4995 0L10.9487 0.00673398L11.3429 0.0237878L11.6825 0.0469146L12.1149 0.0877421L12.4746 0.13154L12.8646 0.189234L13.2682 0.260303L13.6684 0.342336L14.016 0.423143L14.4221 0.528971L14.8378 0.650344L15.1229 0.74139L15.4346 0.848401L15.7704 0.972544L16.1425 1.12119L16.5091 1.27934L16.8489 1.43664L17.1795 1.59999L17.5052 1.77116L17.8216 1.94755L18.1248 2.12636L18.4505 2.32945L18.7705 2.54071L19.0681 2.74803L19.3379 2.9456L19.6951 3.22181L19.959 3.43732L20.2236 3.66375L20.5202 3.93069L20.8321 4.22742L21 4.3944L18.8991 6.51472C16.7495 4.34315 13.7798 3 10.4995 3C7.21951 3 4.25 4.34294 2.10039 6.51422L0 4.3934L0.0238031 4.36941C0.112285 4.28042 0.201872 4.19256 0.292541 4.10584C0.471623 3.93455 0.654932 3.76772 0.842291 3.60552L1.04907 3.42976L1.30359 3.22206L1.53053 3.04456L1.78096 2.85667L2.03549 2.67394L2.18261 2.57197L2.59187 2.30173L2.899 2.11136L3.17753 1.9475L3.58731 1.72097L3.91632 1.55109L4.2505 1.38908L4.56284 1.24692L4.92885 1.09135L5.29952 0.945543L5.62828 0.825826L6.05224 0.684391L6.34422 0.59526L6.72636 0.488568L7.10402 0.393996L7.43254 0.320342L7.81127 0.245201L8.19357 0.179795L8.56224 0.126509L8.94489 0.0812267L9.33637 0.0453427L9.76817 0.0178762L10.1323 0.00449821Z" fill="#FAFAFA"/>
</svg>
