<svg width="56" height="595" viewBox="0 0 56 595" fill="none" xmlns="http://www.w3.org/2000/svg">
<path d="M28 187.773L33.7735 182L28 176.227L22.2265 182L28 187.773ZM27 -4.37114e-08L27 182L29 182L29 4.37114e-08L27 -4.37114e-08Z" fill="#333333"/>
<path d="M42.615 234.125L33.48 234.125L28.475 230.24L23.47 234.125L13.6 234.125L13.6 222.225L22.63 222.225L22.63 219.635L13.6 219.635L13.6 208.47L42.615 208.47L42.615 219.635L33.515 219.635L33.515 222.225L42.615 222.225L42.615 234.125ZM22.665 247.652L22.665 259.517L13.565 259.517L13.565 236.767L42.615 236.767L42.615 259.377L33.515 259.377L33.515 247.652L31.485 247.652L31.485 259.097L24.835 259.097L24.835 247.652L22.665 247.652ZM22.665 272.979L22.665 284.844L13.565 284.844L13.565 262.094L42.615 262.094L42.615 284.704L33.515 284.704L33.515 272.979L31.485 272.979L31.485 284.424L24.835 284.424L24.835 272.979L22.665 272.979ZM42.755 309.156L38.45 313.286L23.54 313.286L19.27 309.156L19.27 298.411L13.495 298.411L13.495 287.596L42.755 287.596L42.755 309.156ZM28.23 302.086L33.865 302.086L33.865 298.411L28.23 298.411L28.23 302.086ZM42.86 328.304L42.86 340.484L13.495 340.484L13.495 328.304L42.86 328.304ZM42.685 366.476L32.57 366.476L32.57 360.491L13.6 360.491L13.6 348.906L32.57 348.906L32.57 342.921L42.685 342.921L42.685 366.476ZM42.755 402.706L38.45 406.836L23.54 406.836L19.27 402.706L19.27 391.961L13.495 391.961L13.495 381.146L42.755 381.146L42.755 402.706ZM28.23 395.636L33.865 395.636L33.865 391.961L28.23 391.961L28.23 395.636ZM42.825 413.817L42.825 431.912L38.135 436.217L18.08 436.217L13.46 431.912L13.46 413.817L18.08 409.512L38.17 409.512L42.825 413.817ZM22.385 420.537L22.385 425.192L33.69 425.192L33.69 420.537L22.385 420.537ZM13.53 458.681L13.53 438.941L22.28 438.941L22.28 451.436L24.17 451.436L24.17 442.511L27.25 438.976L38.555 438.976L42.755 443.211L42.755 462.146L34.565 462.146L34.565 449.721L32.675 449.721L32.675 459.381L29.595 462.916L17.73 462.916L13.53 458.681ZM13.53 485.376L13.53 465.636L22.28 465.636L22.28 478.131L24.17 478.131L24.17 469.206L27.25 465.671L38.555 465.671L42.755 469.906L42.755 488.841L34.565 488.841L34.565 476.416L32.675 476.416L32.675 486.076L29.595 489.611L17.73 489.611L13.53 485.376ZM42.86 492.435L42.86 504.615L13.495 504.615L13.495 492.435L42.86 492.435ZM28.055 530.852L26.41 533.407L17.38 533.407L13.53 529.662L13.53 507.647L42.755 507.647L42.755 529.557L38.66 532.987L29.7 532.987L28.055 530.852ZM34.495 522.487L34.495 517.552L31.24 517.552L31.24 522.487L34.495 522.487ZM21.265 517.552L21.265 522.487L24.31 522.487L24.31 517.552L21.265 517.552ZM42.86 536.185L42.86 547.455L24.275 547.455L24.275 558.445L13.53 558.445L13.53 536.185L42.86 536.185ZM22.665 571.607L22.665 583.472L13.565 583.472L13.565 560.722L42.615 560.722L42.615 583.332L33.515 583.332L33.515 571.607L31.485 571.607L31.485 583.052L24.835 583.052L24.835 571.607L22.665 571.607Z" fill="#222222"/>
</svg>
