<svg width="1007" height="123" viewBox="0 0 1007 123" fill="none" xmlns="http://www.w3.org/2000/svg">
<mask id="path-1-inside-1_80_593" fill="white">
<path d="M0.88 121.6V21.78L12.92 4.84H59.82L67.66 13.24H70.88L78.72 4.84H126.88L138.92 21.78V121.6H96.78V44.74H87.68V120.2H51.84V44.74H42.74V121.6H0.88ZM194.684 27.66H150.164V0.359995H194.684V27.66ZM194.684 122.3H150.164V34.66H194.684V122.3ZM224.021 28.78H299.621V122.3H272.741L264.061 110.96L253.141 122.3H222.901L205.121 103.82V47.26L224.021 28.78ZM245.581 86.04H259.021V59.44H245.581V86.04ZM328.181 123L310.121 104.52V46.98L328.181 28.64H385.301L403.361 46.98V104.52L385.301 123H328.181ZM349.321 89.4H364.581V62.24H349.321V89.4ZM463.4 4.55999H508.48V78.9H552.44V121.88H463.4V4.55999ZM606.207 27.66H561.687V0.359995H606.207V27.66ZM606.207 122.3H561.687V34.66H606.207V122.3ZM623.365 56.5H677.965V88.7H623.365V56.5ZM754.065 5.54H798.025V121.6H754.065V83.1H739.645V121.6H695.685V5.54H739.645V43.48H754.065V5.54ZM828.045 28.78H903.645V122.3H876.765L868.085 110.96L857.165 122.3H826.925L809.145 103.82V47.26L828.045 28.78ZM849.605 86.04H863.045V59.44H849.605V86.04ZM914.145 122.3V28.78H987.645L1006.4 47.26V122.3H964.545V66.86H955.585V122.3H914.145Z"/>
</mask>
<path d="M0.880001 121.6H-1.12V123.6H0.880001V121.6ZM0.880001 21.78L-0.750193 20.6213L-1.12 21.1417V21.78H0.880001ZM12.92 4.84V2.84H11.8878L11.2898 3.68135L12.92 4.84ZM59.82 4.84L61.2821 3.47536L60.6891 2.84H59.82V4.84ZM67.66 13.24L66.1979 14.6046L66.7909 15.24H67.66V13.24ZM70.88 13.24V15.24H71.7491L72.3421 14.6046L70.88 13.24ZM78.72 4.84V2.84H77.8509L77.2579 3.47536L78.72 4.84ZM126.88 4.84L128.51 3.68135L127.912 2.84H126.88V4.84ZM138.92 21.78H140.92V21.1417L140.55 20.6213L138.92 21.78ZM138.92 121.6V123.6H140.92V121.6H138.92ZM96.78 121.6H94.78V123.6H96.78V121.6ZM96.78 44.74H98.78V42.74H96.78V44.74ZM87.68 44.74V42.74H85.68V44.74H87.68ZM87.68 120.2V122.2H89.68V120.2H87.68ZM51.84 120.2H49.84V122.2H51.84V120.2ZM51.84 44.74H53.84V42.74H51.84V44.74ZM42.74 44.74V42.74H40.74V44.74H42.74ZM42.74 121.6V123.6H44.74V121.6H42.74ZM2.88 121.6V21.78H-1.12V121.6H2.88ZM2.51019 22.9386L14.5502 5.99865L11.2898 3.68135L-0.750193 20.6213L2.51019 22.9386ZM12.92 6.84H59.82V2.84H12.92V6.84ZM58.3579 6.20463L66.1979 14.6046L69.1221 11.8754L61.2821 3.47536L58.3579 6.20463ZM67.66 15.24H70.88V11.24H67.66V15.24ZM72.3421 14.6046L80.1821 6.20463L77.2579 3.47536L69.4179 11.8754L72.3421 14.6046ZM78.72 6.84H126.88V2.84H78.72V6.84ZM125.25 5.99865L137.29 22.9386L140.55 20.6213L128.51 3.68135L125.25 5.99865ZM136.92 21.78V121.6H140.92V21.78H136.92ZM138.92 119.6H96.78V123.6H138.92V119.6ZM98.78 121.6V44.74H94.78V121.6H98.78ZM96.78 42.74H87.68V46.74H96.78V42.74ZM85.68 44.74V120.2H89.68V44.74H85.68ZM87.68 118.2H51.84V122.2H87.68V118.2ZM53.84 120.2V44.74H49.84V120.2H53.84ZM51.84 42.74H42.74V46.74H51.84V42.74ZM40.74 44.74V121.6H44.74V44.74H40.74ZM42.74 119.6H0.880001V123.6H42.74V119.6ZM194.684 27.66V29.66H196.684V27.66H194.684ZM150.164 27.66H148.164V29.66H150.164V27.66ZM150.164 0.359995V-1.64001H148.164V0.359995H150.164ZM194.684 0.359995H196.684V-1.64001H194.684V0.359995ZM194.684 122.3V124.3H196.684V122.3H194.684ZM150.164 122.3H148.164V124.3H150.164V122.3ZM150.164 34.66V32.66H148.164V34.66H150.164ZM194.684 34.66H196.684V32.66H194.684V34.66ZM194.684 25.66H150.164V29.66H194.684V25.66ZM152.164 27.66V0.359995H148.164V27.66H152.164ZM150.164 2.35999H194.684V-1.64001H150.164V2.35999ZM192.684 0.359995V27.66H196.684V0.359995H192.684ZM194.684 120.3H150.164V124.3H194.684V120.3ZM152.164 122.3V34.66H148.164V122.3H152.164ZM150.164 36.66H194.684V32.66H150.164V36.66ZM192.684 34.66V122.3H196.684V34.66H192.684ZM224.021 28.78V26.78H223.206L222.623 27.35L224.021 28.78ZM299.621 28.78H301.621V26.78H299.621V28.78ZM299.621 122.3V124.3H301.621V122.3H299.621ZM272.741 122.3L271.153 123.516L271.754 124.3H272.741V122.3ZM264.061 110.96L265.65 109.744L264.235 107.896L262.621 109.573L264.061 110.96ZM253.141 122.3V124.3H253.992L254.582 123.687L253.141 122.3ZM222.901 122.3L221.46 123.687L222.05 124.3H222.901V122.3ZM205.121 103.82H203.121V104.626L203.68 105.207L205.121 103.82ZM205.121 47.26L203.723 45.83L203.121 46.4184V47.26H205.121ZM245.581 86.04H243.581V88.04H245.581V86.04ZM259.021 86.04V88.04H261.021V86.04H259.021ZM259.021 59.44H261.021V57.44H259.021V59.44ZM245.581 59.44V57.44H243.581V59.44H245.581ZM224.021 30.78H299.621V26.78H224.021V30.78ZM297.621 28.78V122.3H301.621V28.78H297.621ZM299.621 120.3H272.741V124.3H299.621V120.3ZM274.33 121.084L265.65 109.744L262.473 112.176L271.153 123.516L274.33 121.084ZM262.621 109.573L251.701 120.913L254.582 123.687L265.502 112.347L262.621 109.573ZM253.141 120.3H222.901V124.3H253.141V120.3ZM224.343 120.913L206.563 102.433L203.68 105.207L221.46 123.687L224.343 120.913ZM207.121 103.82V47.26H203.121V103.82H207.121ZM206.52 48.69L225.42 30.21L222.623 27.35L203.723 45.83L206.52 48.69ZM245.581 88.04H259.021V84.04H245.581V88.04ZM261.021 86.04V59.44H257.021V86.04H261.021ZM259.021 57.44H245.581V61.44H259.021V57.44ZM243.581 59.44V86.04H247.581V59.44H243.581ZM328.181 123L326.751 124.398L327.339 125H328.181V123ZM310.121 104.52H308.121V105.335L308.691 105.918L310.121 104.52ZM310.121 46.98L308.696 45.5767L308.121 46.1606V46.98H310.121ZM328.181 28.64V26.64H327.344L326.756 27.2367L328.181 28.64ZM385.301 28.64L386.726 27.2367L386.139 26.64H385.301V28.64ZM403.361 46.98H405.361V46.1606L404.786 45.5767L403.361 46.98ZM403.361 104.52L404.792 105.918L405.361 105.335V104.52H403.361ZM385.301 123V125H386.143L386.732 124.398L385.301 123ZM349.321 89.4H347.321V91.4H349.321V89.4ZM364.581 89.4V91.4H366.581V89.4H364.581ZM364.581 62.24H366.581V60.24H364.581V62.24ZM349.321 62.24V60.24H347.321V62.24H349.321ZM329.612 121.602L311.552 103.122L308.691 105.918L326.751 124.398L329.612 121.602ZM312.121 104.52V46.98H308.121V104.52H312.121ZM311.546 48.3833L329.606 30.0433L326.756 27.2367L308.696 45.5767L311.546 48.3833ZM328.181 30.64H385.301V26.64H328.181V30.64ZM383.876 30.0433L401.936 48.3833L404.786 45.5767L386.726 27.2367L383.876 30.0433ZM401.361 46.98V104.52H405.361V46.98H401.361ZM401.931 103.122L383.871 121.602L386.732 124.398L404.792 105.918L401.931 103.122ZM385.301 121H328.181V125H385.301V121ZM349.321 91.4H364.581V87.4H349.321V91.4ZM366.581 89.4V62.24H362.581V89.4H366.581ZM364.581 60.24H349.321V64.24H364.581V60.24ZM347.321 62.24V89.4H351.321V62.24H347.321ZM463.4 4.55999V2.55999H461.4V4.55999H463.4ZM508.48 4.55999H510.48V2.55999H508.48V4.55999ZM508.48 78.9H506.48V80.9H508.48V78.9ZM552.44 78.9H554.44V76.9H552.44V78.9ZM552.44 121.88V123.88H554.44V121.88H552.44ZM463.4 121.88H461.4V123.88H463.4V121.88ZM463.4 6.55999H508.48V2.55999H463.4V6.55999ZM506.48 4.55999V78.9H510.48V4.55999H506.48ZM508.48 80.9H552.44V76.9H508.48V80.9ZM550.44 78.9V121.88H554.44V78.9H550.44ZM552.44 119.88H463.4V123.88H552.44V119.88ZM465.4 121.88V4.55999H461.4V121.88H465.4ZM606.207 27.66V29.66H608.207V27.66H606.207ZM561.687 27.66H559.687V29.66H561.687V27.66ZM561.687 0.359995V-1.64001H559.687V0.359995H561.687ZM606.207 0.359995H608.207V-1.64001H606.207V0.359995ZM606.207 122.3V124.3H608.207V122.3H606.207ZM561.687 122.3H559.687V124.3H561.687V122.3ZM561.687 34.66V32.66H559.687V34.66H561.687ZM606.207 34.66H608.207V32.66H606.207V34.66ZM606.207 25.66H561.687V29.66H606.207V25.66ZM563.687 27.66V0.359995H559.687V27.66H563.687ZM561.687 2.35999H606.207V-1.64001H561.687V2.35999ZM604.207 0.359995V27.66H608.207V0.359995H604.207ZM606.207 120.3H561.687V124.3H606.207V120.3ZM563.687 122.3V34.66H559.687V122.3H563.687ZM561.687 36.66H606.207V32.66H561.687V36.66ZM604.207 34.66V122.3H608.207V34.66H604.207ZM623.365 56.5V54.5H621.365V56.5H623.365ZM677.965 56.5H679.965V54.5H677.965V56.5ZM677.965 88.7V90.7H679.965V88.7H677.965ZM623.365 88.7H621.365V90.7H623.365V88.7ZM623.365 58.5H677.965V54.5H623.365V58.5ZM675.965 56.5V88.7H679.965V56.5H675.965ZM677.965 86.7H623.365V90.7H677.965V86.7ZM625.365 88.7V56.5H621.365V88.7H625.365ZM754.065 5.54V3.54H752.065V5.54H754.065ZM798.025 5.54H800.025V3.54H798.025V5.54ZM798.025 121.6V123.6H800.025V121.6H798.025ZM754.065 121.6H752.065V123.6H754.065V121.6ZM754.065 83.1H756.065V81.1H754.065V83.1ZM739.645 83.1V81.1H737.645V83.1H739.645ZM739.645 121.6V123.6H741.645V121.6H739.645ZM695.685 121.6H693.685V123.6H695.685V121.6ZM695.685 5.54V3.54H693.685V5.54H695.685ZM739.645 5.54H741.645V3.54H739.645V5.54ZM739.645 43.48H737.645V45.48H739.645V43.48ZM754.065 43.48V45.48H756.065V43.48H754.065ZM754.065 7.54H798.025V3.54H754.065V7.54ZM796.025 5.54V121.6H800.025V5.54H796.025ZM798.025 119.6H754.065V123.6H798.025V119.6ZM756.065 121.6V83.1H752.065V121.6H756.065ZM754.065 81.1H739.645V85.1H754.065V81.1ZM737.645 83.1V121.6H741.645V83.1H737.645ZM739.645 119.6H695.685V123.6H739.645V119.6ZM697.685 121.6V5.54H693.685V121.6H697.685ZM695.685 7.54H739.645V3.54H695.685V7.54ZM737.645 5.54V43.48H741.645V5.54H737.645ZM739.645 45.48H754.065V41.48H739.645V45.48ZM756.065 43.48V5.54H752.065V43.48H756.065ZM828.045 28.78V26.78H827.23L826.647 27.35L828.045 28.78ZM903.645 28.78H905.645V26.78H903.645V28.78ZM903.645 122.3V124.3H905.645V122.3H903.645ZM876.765 122.3L875.177 123.516L875.777 124.3H876.765V122.3ZM868.085 110.96L869.673 109.744L868.258 107.896L866.644 109.573L868.085 110.96ZM857.165 122.3V124.3H858.015L858.605 123.687L857.165 122.3ZM826.925 122.3L825.484 123.687L826.074 124.3H826.925V122.3ZM809.145 103.82H807.145V104.626L807.704 105.207L809.145 103.82ZM809.145 47.26L807.747 45.83L807.145 46.4184V47.26H809.145ZM849.605 86.04H847.605V88.04H849.605V86.04ZM863.045 86.04V88.04H865.045V86.04H863.045ZM863.045 59.44H865.045V57.44H863.045V59.44ZM849.605 59.44V57.44H847.605V59.44H849.605ZM828.045 30.78H903.645V26.78H828.045V30.78ZM901.645 28.78V122.3H905.645V28.78H901.645ZM903.645 120.3H876.765V124.3H903.645V120.3ZM878.353 121.084L869.673 109.744L866.497 112.176L875.177 123.516L878.353 121.084ZM866.644 109.573L855.724 120.913L858.605 123.687L869.526 112.347L866.644 109.573ZM857.165 120.3H826.925V124.3H857.165V120.3ZM828.366 120.913L810.586 102.433L807.704 105.207L825.484 123.687L828.366 120.913ZM811.145 103.82V47.26H807.145V103.82H811.145ZM810.543 48.69L829.443 30.21L826.647 27.35L807.747 45.83L810.543 48.69ZM849.605 88.04H863.045V84.04H849.605V88.04ZM865.045 86.04V59.44H861.045V86.04H865.045ZM863.045 57.44H849.605V61.44H863.045V57.44ZM847.605 59.44V86.04H851.605V59.44H847.605ZM914.145 122.3H912.145V124.3H914.145V122.3ZM914.145 28.78V26.78H912.145V28.78H914.145ZM987.645 28.78L989.048 27.3552L988.464 26.78H987.645V28.78ZM1006.4 47.26H1008.4V46.4227L1007.81 45.8352L1006.4 47.26ZM1006.4 122.3V124.3H1008.4V122.3H1006.4ZM964.545 122.3H962.545V124.3H964.545V122.3ZM964.545 66.86H966.545V64.86H964.545V66.86ZM955.585 66.86V64.86H953.585V66.86H955.585ZM955.585 122.3V124.3H957.585V122.3H955.585ZM916.145 122.3V28.78H912.145V122.3H916.145ZM914.145 30.78H987.645V26.78H914.145V30.78ZM986.241 30.2048L1005 48.6848L1007.81 45.8352L989.048 27.3552L986.241 30.2048ZM1004.4 47.26V122.3H1008.4V47.26H1004.4ZM1006.4 120.3H964.545V124.3H1006.4V120.3ZM966.545 122.3V66.86H962.545V122.3H966.545ZM964.545 64.86H955.585V68.86H964.545V64.86ZM953.585 66.86V122.3H957.585V66.86H953.585ZM955.585 120.3H914.145V124.3H955.585V120.3Z" fill="#FAFAFA" mask="url(#path-1-inside-1_80_593)"/>
</svg>
