<svg width="131" height="431" viewBox="0 0 131 431" fill="none" xmlns="http://www.w3.org/2000/svg">
<path opacity="0.6" d="M120.86 5.31999H129.26V36.4H120.86V42.84H92.44V36.4H83.06V42.84H55.34V36.4H48.34V5.31999H55.34V0.139995H83.06V5.31999H92.44V0.139995H120.86V5.31999ZM0.46 129.36V2.52H44.84V129.36H0.46ZM20.76 35.7V98.98H24.68V35.7H20.76ZM48.34 130.34V46.2H129.26V130.34H48.34ZM79.14 70.14H74.1V80.5H79.14V70.14ZM101.68 80.5V70.14H96.64V80.5H101.68ZM74.1 96.18V106.54H79.14V96.18H74.1ZM96.64 106.54H101.68V96.18H96.64V106.54ZM129.12 156.3V192.14H1.58V156.3H40.36V149.02H90.2V156.3H129.12ZM115.54 245.2H130.1V279.78H0.46V245.2H13.76L7.32 201.94V196.76H50.58L56.6 245.2H72.7L78.72 196.76H121.98V201.94L115.54 245.2ZM106.86 300L129.54 313.58V336.4H104.62L95.94 330.8H91.04L83.06 336.4H57.44V313.58L80.12 300H106.86ZM44.14 393.8V398.7H54.36V422.92H44.14V430.48H11.52V422.92H1.16V398.7H11.52V393.8H1.16V334.44H11.52V329.68H1.16V306.3H11.52V301.54H44.14V306.3H54.22V329.68H44.14V334.44H54.22V393.8H44.14ZM57.72 363.42V339.9H91.04V430.2H57.3V417.18L64.72 414.52V409.76L60.94 411.3H57.58V391.42L64.72 388.9V386.8L57.58 385.12V367.48H60.94L64.72 368.46V363.42H57.72ZM93.98 363.42V339.9H129.4V430.2H95.24V417.18L101.4 414.52V410.74L97.48 412.28H94.12V391.42L101.4 388.9V386.8L93.98 385.12V367.48H97.48L101.4 368.46V363.42H93.98ZM32.38 357.4V353.48H22.58V357.4H32.38ZM22.58 370.42V374.34H32.38V370.42H22.58Z" fill="#FAFAFA"/>
</svg>
