<svg width="691" height="281" viewBox="0 0 691 281" fill="none" xmlns="http://www.w3.org/2000/svg">
<path d="M65.88 49.56L61.12 56.98H46V25.34L51.46 19.32V1.26H82.12V19.74L87.3 25.06V56.98H72.74L67.98 49.56H65.88ZM126.5 19.88L131.68 25.2V56.98H116.7L112.36 49.56H110.26L105.5 56.98H90.38V25.34L95.7 19.32V1.26H126.5V19.88ZM42.92 26.32L6.94 51.1H0.78V13.16L18.84 1.67999H42.92V26.32ZM0.78 59.92L34.38 36.54H43.06V130.76H6.24V95.2H0.78V59.92ZM109.28 92.96V97.44H131.54V130.34H78.62L70.36 122.78L64.34 130.62H46.28V60.06H73.86V97.44H77.08V60.06H109.28V65.24H130.28V92.96H109.28ZM326 0.139995V12.04H344.06V129.5H282.32V16.52L294.5 0.139995H326ZM388.58 6.85999H411.4V130.06H354V111.44L374.72 97.44V44.38H348.4V14.14L358.62 0.139995H388.58V6.85999ZM317.46 45.5H310.04V60.62H317.46V45.5ZM370.52 97.02H356.24L348.96 87.5V49H370.52V97.02ZM310.04 101.36H317.46V85.68H310.04V101.36ZM542.16 97.58L553.08 108.22V130.06H527.32L519.06 121.38L510.94 130.34H477.9V1.26H550.98V76.3H508.56V88.2L516.82 79.66H549.72V89.32L542.16 97.58ZM422.32 129.5V2.09999H473.98V129.5H422.32ZM521.86 29.54H507.16V34.16H521.86V29.54ZM450.88 32.06H445.42V42.84H450.88V32.06ZM507.16 52.22H521.86V47.6H507.16V52.22ZM445.42 71.4H450.88V61.32H445.42V71.4ZM445.42 100.66H450.88V89.88H445.42V100.66ZM690.98 9.8V110.04H652.34V130.48H601.1V110.04H563.16V9.8H601.1V0.139995H652.34V9.8H690.98ZM598.3 43.68V77.7H606.7V43.68H598.3ZM655.14 77.7V43.68H646.74V77.7H655.14ZM132.24 214.68H63.64L60.28 217.9H130.14V280.06H7.92V258.5H1.9V223.64L11.84 214.68H2.04V197.18H24.02V193.96H4.84V176.6H24.02V173.52H4.84V150.98H130.56V165.12L121.74 173.52H68.4V176.6H129.02V193.96H68.4V197.18H132.24V214.68ZM90.8 237.92V234.84H46.28V237.92H90.8ZM46.28 247.16V250.38H90.8V247.16H46.28ZM46.28 263.12H90.8V259.9H46.28V263.12ZM254.46 247.02H271.96V280.48H204.76V248H199.86L188.94 280.48H143.44V267.18L158.98 243.8H146.1V151.12H268.04V243.8H245.64V252.48H250.26L254.46 247.02ZM227.58 177.86H185.58V182.06H227.58V177.86ZM227.58 200.4V196.2H185.58V200.4H227.58ZM185.58 214.96V219.16H227.58V214.96H185.58ZM282.74 209.92V179.68L297.3 154.34H343.36V162.18L336.36 175.62V177.44H358.06V175.62L351.2 162.18V154.34H397.12L411.68 179.68V209.92H282.74ZM284.84 215.1H409.16V279.78H284.84V215.1ZM326.98 243.1V250.8H366.04V243.1H326.98ZM519.62 153.5V168.48H488.4V153.5H493.86V149.58H514.16V153.5H519.62ZM486.16 186.12V200.26H457.18V184.02L463.06 178.14V178H457.32V159.94L466 151.54H485.88V161.2L479.44 167.5V167.78H486.16V180.38L480.56 185.84V186.12H486.16ZM551.12 186.12V200.26H521.58V184.02L527.6 178.14V178H521.86V159.94L530.54 151.54H550.84V161.2L544.54 167.5V167.78H551.12V180.38L545.52 185.84V186.12H551.12ZM422.6 187.8V151.96H454.66V187.8H422.6ZM518.78 170.86V181.36H488.96V170.86H518.78ZM488.96 194.24V183.74H518.78V194.24H488.96ZM422.6 228.12V191.44H454.66V228.12H422.6ZM488.54 219.58V196.9H519.2V219.58H488.54ZM467.26 202.5V219.58H457.32V202.5H467.26ZM476.92 219.58H469.22V202.5H476.92V219.58ZM486.02 219.58H479.02V202.5H486.02V219.58ZM531.24 202.5V219.58H521.44V202.5H531.24ZM541.6 219.58H533.34V202.5H541.6V219.58ZM550.98 219.58H543.7V202.5H550.98V219.58ZM501 207.12V210.06H507.3V207.12H501ZM484.9 249.54H551.96V269.56L543.84 279.78H457.6V263.4H516.68V260.46H457.88V237.22H516.68V234.42H457.6V222.24H551.4V246.88H484.9V249.54ZM422.32 245.76L429.88 231.76H454.66V280.34H422.32V245.76Z" fill="#4527A0"/>
<path d="M262.86 5.31999H271.26V36.4H262.86V42.84H234.44V36.4H225.06V42.84H197.34V36.4H190.34V5.31999H197.34V0.139995H225.06V5.31999H234.44V0.139995H262.86V5.31999ZM142.46 129.36V2.52H186.84V129.36H142.46ZM162.76 35.7V98.98H166.68V35.7H162.76ZM190.34 130.34V46.2H271.26V130.34H190.34ZM221.14 70.14H216.1V80.5H221.14V70.14ZM243.68 80.5V70.14H238.64V80.5H243.68ZM216.1 96.18V106.54H221.14V96.18H216.1ZM238.64 106.54H243.68V96.18H238.64V106.54Z" fill="#26A69A"/>
</svg>
